<?xml version="1.0" encoding="UTF-8" standalone="no"?>
<!DOCTYPE svg PUBLIC "-//W3C//DTD SVG 1.1//EN" "http://www.w3.org/Graphics/SVG/1.1/DTD/svg11.dtd">
<svg width="100%" height="100%" viewBox="0 0 400 400" version="1.1" xmlns="http://www.w3.org/2000/svg" xmlns:xlink="http://www.w3.org/1999/xlink" xml:space="preserve" xmlns:serif="http://www.serif.com/" style="fill-rule:evenodd;clip-rule:evenodd;stroke-linecap:round;stroke-linejoin:round;stroke-miterlimit:10;">
    <g id="SvgjsG1658" transform="matrix(1.94825,0,0,1.94825,5.64777,5.9564)">
        <path d="M100.254,0C44.974,0 0,44.974 0,100.254C0,155.534 44.974,200.508 100.254,200.508C155.534,200.508 200.508,155.534 200.508,100.254C200.508,44.974 155.534,0 100.254,0ZM100.254,195.508C47.731,195.508 5,152.777 5,100.254C5,47.731 47.731,5 100.254,5C152.777,5 195.508,47.73 195.508,100.254C195.508,152.778 152.777,195.508 100.254,195.508Z" style="fill:rgb(20,189,172);fill-rule:nonzero;"/>
    </g>
    <g id="SvgjsG1659" transform="matrix(8.43977,0,0,8.43977,14.4251,16.6146)">
        <g transform="matrix(1.42689,0,0,1.42689,-3.2958,-3.81263)">
            <path d="M8.6,17.9L17.8,8.7" style="fill:none;stroke:rgb(20,189,172);stroke-width:3px;"/>
            <path d="M8.6,8.7L17.8,17.9" style="fill:none;stroke:rgb(20,189,172);stroke-width:3px;"/>
        </g>
        <g transform="matrix(1,0,0,1,16.905,17.9601)">
            <path d="M8.6,17.9L17.8,8.7" style="fill:none;stroke:rgb(20,189,172);stroke-width:3px;"/>
            <path d="M8.6,8.7L17.8,17.9" style="fill:none;stroke:rgb(20,189,172);stroke-width:3px;"/>
        </g>
        <g transform="matrix(0.858857,0,0,0.858857,2.7315,5.05291)">
            <circle cx="13.2" cy="30.2" r="5.6" style="fill:none;stroke:rgb(20,189,172);stroke-width:3px;"/>
        </g>
        <g transform="matrix(0.894946,-0.232953,0.232953,0.894946,12.4586,-8.78737)">
            <circle cx="13.2" cy="30.2" r="5.6" style="fill:none;stroke:rgb(20,189,172);stroke-width:3px;"/>
        </g>
    </g>
</svg>
